<svg width="18" height="18" viewBox="0 0 18 18" fill="none" xmlns="http://www.w3.org/2000/svg">
  <path d="M16.3125 2.46094H1.6875C1.37637 2.46094 1.125 2.7123 1.125 3.02344V11.7422C1.125 12.0533 1.37637 12.3047 1.6875 12.3047H8.36719V14.2734H5.34375C5.18906 14.2734 5.0625 14.4 5.0625 14.5547V15.3984C5.0625 15.4758 5.12578 15.5391 5.20312 15.5391H12.7969C12.8742 15.5391 12.9375 15.4758 12.9375 15.3984V14.5547C12.9375 14.4 12.8109 14.2734 12.6562 14.2734H9.63281V12.3047H16.3125C16.6236 12.3047 16.875 12.0533 16.875 11.7422V3.02344C16.875 2.7123 16.6236 2.46094 16.3125 2.46094ZM15.6094 11.0391H2.39062V3.72656H15.6094V11.0391Z" fill="#177DDC"/>
</svg> 
