<svg width="120" height="24" viewBox="0 0 120 24" fill="none" xmlns="http://www.w3.org/2000/svg">
<path d="M46.4452 7.0528C45.8259 6.70876 45.1034 6.53674 44.3121 6.53674C43.4176 6.53674 42.5919 6.74317 41.9039 7.12161C41.5254 7.32803 41.2158 7.56885 40.9406 7.87849C40.6653 7.56885 40.3557 7.29363 39.9773 7.0872C39.358 6.74317 38.6355 6.57115 37.8442 6.57115C37.0185 6.57115 36.2617 6.77757 35.6424 7.15601C35.5392 7.22482 35.436 7.29363 35.3328 7.36243C35.264 7.25922 35.1951 7.15601 35.0919 7.0528C34.8511 6.81197 34.5071 6.67436 34.1286 6.67436C33.7502 6.67436 33.4406 6.81197 33.1997 7.0528C32.9589 7.29362 32.8213 7.63766 32.8213 8.0161V16.6858C32.8213 17.0643 32.9589 17.3739 33.1997 17.6491C33.4406 17.89 33.7846 18.0276 34.163 18.0276C34.5415 18.0276 34.8855 17.89 35.1263 17.6491C35.3672 17.4083 35.5048 17.0643 35.5048 16.7202V11.1468C35.5048 10.4932 35.6768 10.0115 36.0896 9.59867C36.4681 9.18583 36.9497 9.01381 37.5002 9.01381C38.0507 9.01381 38.4979 9.18583 38.8419 9.49546C39.186 9.8395 39.358 10.3556 39.358 11.078V16.6514C39.358 17.0299 39.4956 17.3395 39.7364 17.6147C39.9773 17.8556 40.3213 17.9932 40.6997 17.9932C41.0782 17.9932 41.4222 17.8556 41.663 17.6147C41.9039 17.3739 42.0415 17.0299 42.0415 16.6858V11.1468C42.0415 10.4932 42.2135 9.97711 42.5919 9.59867C42.9704 9.18583 43.4176 9.01381 44.0025 9.01381C44.553 9.01381 45.0002 9.18583 45.3442 9.49546C45.6883 9.8395 45.8603 10.3556 45.8603 11.078V16.6514C45.8603 17.0299 45.9979 17.3395 46.2387 17.6147C46.4796 17.8556 46.8236 17.9932 47.202 17.9932C47.5805 17.9932 47.9245 17.8556 48.1653 17.6147C48.4062 17.3739 48.5438 17.0299 48.5438 16.6858V11.078C48.5438 10.1491 48.3718 9.32344 48.0277 8.63537C47.5805 7.9473 47.0988 7.43124 46.4452 7.0528Z" fill="#1D1D1D"/>
<path d="M59.5528 7.29352C58.6927 6.81187 57.7294 6.57104 56.6285 6.57104C55.5276 6.57104 54.5299 6.81187 53.6698 7.29352C52.8097 7.77517 52.1216 8.46325 51.64 9.32334C51.1583 10.1834 50.9175 11.1811 50.9175 12.3165C50.9175 13.4174 51.1583 14.4151 51.64 15.2752C52.1216 16.1353 52.8097 16.8234 53.6698 17.305C54.5299 17.7867 55.5276 18.0275 56.6285 18.0275C57.7294 18.0275 58.7271 17.7867 59.5872 17.305C60.4473 16.8234 61.1354 16.1353 61.617 15.2752C62.0987 14.4151 62.3395 13.4174 62.3395 12.3165C62.3395 11.2155 62.0987 10.1834 61.617 9.32334C61.101 8.46325 60.4129 7.77517 59.5528 7.29352ZM58.2455 15.172C57.7982 15.4472 57.2478 15.5848 56.6285 15.5848C56.0092 15.5848 55.4932 15.4472 55.0115 15.172C54.5643 14.8967 54.1858 14.5183 53.9106 14.0022C53.6354 13.5206 53.4978 12.9357 53.4978 12.2821C53.4978 11.6284 53.6354 11.0435 53.9106 10.5619C54.1858 10.0802 54.5643 9.66738 55.0115 9.39215C55.4588 9.11692 56.0092 8.97931 56.6285 8.97931C57.2478 8.97931 57.7638 9.11692 58.2455 9.39215C58.6927 9.66738 59.0712 10.0458 59.3464 10.5619C59.6216 11.0779 59.7592 11.6628 59.7592 12.3165C59.7592 12.9701 59.6216 13.555 59.3464 14.0367C59.0712 14.5183 58.7271 14.8967 58.2455 15.172Z" fill="#1D1D1D"/>
<path d="M73.2113 7.15601C72.4544 6.74317 71.5943 6.53674 70.6654 6.53674C69.7709 6.53674 68.9108 6.74317 68.1884 7.15601C67.9819 7.25922 67.8099 7.39684 67.6379 7.50005C67.5691 7.32803 67.4659 7.15601 67.3283 7.0184C67.0874 6.77757 66.7434 6.63995 66.365 6.63995C65.9865 6.63995 65.6769 6.77757 65.4361 7.0184C65.1952 7.25922 65.0576 7.60326 65.0576 7.9817V16.6514C65.0576 17.0299 65.1952 17.3395 65.4361 17.6147C65.6769 17.8556 66.0209 17.9932 66.3994 17.9932C66.7778 17.9932 67.1218 17.8556 67.3627 17.6147C67.6035 17.3739 67.7411 17.0299 67.7411 16.6858V11.1468C67.7411 10.734 67.8443 10.39 68.0851 10.0803C68.326 9.77069 68.6356 9.49546 69.014 9.28904C69.3925 9.08262 69.8397 8.97941 70.3558 8.97941C70.9063 8.97941 71.3879 9.08262 71.8007 9.28904C72.2136 9.49546 72.5232 9.77069 72.7641 10.1835C73.0049 10.5964 73.1425 11.1468 73.1425 11.8349V16.617C73.1425 16.9955 73.2801 17.3051 73.5209 17.5803C73.7618 17.8212 74.1058 17.9588 74.4842 17.9588C74.8627 17.9588 75.1723 17.8212 75.4475 17.5803C75.6884 17.3395 75.826 16.9955 75.826 16.617V11.8693C75.826 10.734 75.6196 9.77069 75.1723 8.97941C74.5875 8.18812 73.9682 7.56885 73.2113 7.15601Z" fill="#1D1D1D"/>
<path d="M86.8004 7.29352C85.9403 6.81187 84.977 6.57104 83.8761 6.57104C82.7751 6.57104 81.7774 6.81187 80.9173 7.29352C80.0572 7.77517 79.3692 8.46325 78.8875 9.32334C78.4059 10.1834 78.165 11.1811 78.165 12.3165C78.165 13.4174 78.4059 14.4151 78.8875 15.2752C79.3692 16.1353 80.0572 16.8234 80.9173 17.305C81.7774 17.7867 82.7751 18.0275 83.8761 18.0275C84.977 18.0275 85.9747 17.7867 86.8348 17.305C87.6949 16.8234 88.3829 16.1353 88.8646 15.2752C89.3462 14.4151 89.5871 13.4174 89.5871 12.3165C89.5871 11.2155 89.3462 10.1834 88.8646 9.32334C88.3485 8.46325 87.6605 7.77517 86.8004 7.29352ZM85.493 15.172C85.0458 15.4472 84.4953 15.5848 83.8761 15.5848C83.2568 15.5848 82.7407 15.4472 82.2591 15.172C81.8118 14.8967 81.4334 14.5183 81.1582 14.0022C80.8829 13.5206 80.7453 12.9357 80.7453 12.2821C80.7453 11.6284 80.8829 11.0435 81.1582 10.5619C81.4334 10.0802 81.8118 9.66738 82.2591 9.39215C82.7063 9.11692 83.2568 8.97931 83.8761 8.97931C84.4953 8.97931 85.0114 9.11692 85.493 9.39215C85.9403 9.66738 86.3187 10.0458 86.594 10.5619C86.8692 11.0779 87.0068 11.6628 87.0068 12.3165C87.0068 12.9701 86.8692 13.555 86.594 14.0367C86.3187 14.5183 85.9747 14.8967 85.493 15.172Z" fill="#1D1D1D"/>
<path d="M97.3625 11.6286L100.7 8.66984C100.975 8.42902 101.112 8.15379 101.112 7.80975C101.147 7.46571 101.009 7.19049 100.768 6.91526C100.528 6.64003 100.252 6.50241 99.9084 6.50241C99.5643 6.46801 99.2547 6.60562 99.0139 6.84645L94.851 10.562V3.37167C94.851 2.99323 94.7134 2.6836 94.4726 2.44277C94.2317 2.20195 93.9221 2.06433 93.5437 2.06433C93.1652 2.06433 92.8556 2.20195 92.6148 2.44277C92.3739 2.6836 92.2363 2.99323 92.2363 3.37167V16.6515C92.2363 17.0299 92.3739 17.3396 92.6148 17.5804C92.8556 17.8212 93.1652 17.9588 93.5437 17.9588C93.9221 17.9588 94.2317 17.8212 94.4726 17.5804C94.7134 17.3396 94.851 17.0299 94.851 16.6515V13.8304L95.4359 13.3143L98.9106 17.6148C99.1515 17.89 99.4267 18.0621 99.7707 18.0965C99.8051 18.0965 99.8395 18.0965 99.8739 18.0965C100.184 18.0965 100.459 17.9933 100.7 17.7868C101.009 17.546 101.147 17.2708 101.181 16.9267C101.216 16.5827 101.112 16.3075 100.872 15.9978L97.3625 11.6286Z" fill="#1D1D1D"/>
<path d="M107.133 15.3439H106.651C106.548 15.3439 106.41 15.3095 106.238 15.0343C106.101 14.7935 105.997 14.4494 105.997 14.0022V3.40585C105.997 3.02741 105.86 2.71778 105.619 2.47695C105.378 2.23613 105.069 2.09851 104.69 2.09851C104.312 2.09851 104.002 2.23613 103.761 2.47695C103.52 2.71778 103.383 3.02741 103.383 3.40585V14.0366C103.383 14.7935 103.52 15.4472 103.796 16.032C104.071 16.6169 104.449 17.0985 104.931 17.4426C105.413 17.7866 105.997 17.9586 106.651 17.9586H106.686C107.133 17.9586 107.546 17.8554 107.855 17.6146C108.199 17.3738 108.371 17.0297 108.371 16.6513C108.371 16.2728 108.268 15.9632 108.027 15.7224C107.786 15.4472 107.477 15.3439 107.133 15.3439Z" fill="#1D1D1D"/>
<path d="M119.656 12.9702C119.897 12.7294 120 12.4542 120 12.1101C120 11.0436 119.794 10.0803 119.381 9.25464C118.968 8.42895 118.383 7.74087 117.592 7.25922C116.8 6.77757 115.872 6.53674 114.805 6.53674C113.739 6.53674 112.741 6.77757 111.915 7.25922C111.089 7.74087 110.401 8.42895 109.92 9.28904C109.438 10.1491 109.197 11.1468 109.197 12.2478C109.197 13.3487 109.438 14.3464 109.954 15.2065C110.47 16.0666 111.158 16.7546 112.053 17.2363C112.947 17.718 113.945 17.9588 115.08 17.9588C115.7 17.9588 116.388 17.8556 117.076 17.6147C117.764 17.3739 118.349 17.0643 118.83 16.7202C119.209 16.4106 119.278 16.0666 119.278 15.8257C119.243 15.5161 119.106 15.2065 118.796 14.9312C118.555 14.7248 118.28 14.6216 117.97 14.656C117.661 14.656 117.385 14.7592 117.145 14.9312C116.904 15.1033 116.594 15.2753 116.216 15.4129C115.837 15.5505 115.459 15.6193 115.08 15.6193C114.392 15.6193 113.807 15.4817 113.291 15.1721C112.775 14.8624 112.362 14.484 112.087 13.9679C111.95 13.7615 111.846 13.5207 111.778 13.2455H118.761C119.14 13.3143 119.415 13.2111 119.656 12.9702ZM114.839 8.9106C115.424 8.9106 115.906 9.04822 116.319 9.28904C116.732 9.56427 117.041 9.90831 117.248 10.3556C117.351 10.562 117.42 10.8028 117.489 11.078H111.846C111.915 10.8716 111.984 10.6996 112.053 10.5276C112.294 10.0115 112.638 9.63308 113.119 9.32345C113.567 9.04822 114.151 8.9106 114.839 8.9106Z" fill="#1D1D1D"/>
<path fill-rule="evenodd" clip-rule="evenodd" d="M0 11.8005C0 18.3028 5.29817 23.601 11.8005 23.601C18.3028 23.601 23.6009 18.3028 23.6009 11.8005C23.6009 5.29817 18.3028 0 11.8005 0C5.26377 0 0 5.26377 0 11.8005ZM5.26377 10.4587C5.26377 14.7936 8.77295 18.3372 13.1422 18.3372C17.4771 18.3372 21.0207 14.828 21.0207 10.4587C21.0207 6.08946 17.5115 2.58028 13.1422 2.58028C8.77295 2.61468 5.26377 6.12386 5.26377 10.4587Z" fill="url(#paint0_linear_53_7)"/>
<path fill-rule="evenodd" clip-rule="evenodd" d="M13.1076 18.8876C8.46312 18.8876 4.67871 15.1032 4.67871 10.4587C4.67871 5.81419 8.46312 2.02979 13.1076 2.02979C17.7521 2.02979 21.5365 5.81419 21.5365 10.4587C21.5365 15.1376 17.7521 18.8876 13.1076 18.8876ZM13.1076 18.3371C8.77275 18.3371 5.22917 14.828 5.22917 10.4587C5.22917 6.12383 8.73835 2.58024 13.1076 2.58024C17.4769 2.58024 20.9861 6.08942 20.9861 10.4587C20.9861 14.828 17.4425 18.3371 13.1076 18.3371Z" fill="url(#paint1_radial_53_7)"/>
<path fill-rule="evenodd" clip-rule="evenodd" d="M11.8005 23.601C5.29817 23.601 0 18.3028 0 11.8005C0 5.29817 5.26377 0 11.8005 0C18.3372 0 23.6009 5.26377 23.6009 11.8005C23.6009 18.3028 18.3372 23.5665 11.8005 23.601ZM11.8005 23.0161C5.71102 23.0161 0.55046 17.8555 0.55046 11.7661C0.55046 5.67661 5.71102 0.55046 11.8005 0.55046C17.8899 0.55046 23.0505 5.71102 23.0505 11.7661C23.0505 17.8211 17.8899 23.0161 11.8005 23.0161Z" fill="url(#paint2_radial_53_7)"/>
<defs>
<linearGradient id="paint0_linear_53_7" x1="20.8269" y1="4.20197" x2="3.22373" y2="18.9713" gradientUnits="userSpaceOnUse">
<stop stop-color="#3085D4"/>
<stop offset="1" stop-color="#69C5C3"/>
</linearGradient>
<radialGradient id="paint1_radial_53_7" cx="0" cy="0" r="1" gradientUnits="userSpaceOnUse" gradientTransform="translate(14.4374 10.7634) rotate(-44.0248) scale(8.74579)">
<stop stop-color="#3085D4"/>
<stop offset="0.17" stop-color="#3085D4"/>
<stop offset="0.39" stop-color="#69C5C3"/>
<stop offset="0.5" stop-color="#6AA2D6"/>
<stop offset="0.6" stop-color="#69C5C3"/>
<stop offset="0.86" stop-color="#3085D4"/>
</radialGradient>
<radialGradient id="paint2_radial_53_7" cx="0" cy="0" r="1" gradientUnits="userSpaceOnUse" gradientTransform="translate(11.6341 12.2105) rotate(-53.3771) scale(12.0523 11.8997)">
<stop offset="0.03" stop-color="#6AA2D6"/>
<stop offset="0.08" stop-color="#6AA2D6"/>
<stop offset="0.21" stop-color="#6AA2D6"/>
<stop offset="0.42" stop-color="#69C5C3"/>
<stop offset="0.51" stop-color="#69C5C3"/>
<stop offset="0.61" stop-color="#69C5C3"/>
<stop offset="0.97" stop-color="#6AA2D6"/>
</radialGradient>
</defs>
</svg>
